<?xml version="1.0" encoding="utf-8"?>
<!-- Generator: Adobe Illustrator 17.1.0, SVG Export Plug-In . SVG Version: 6.00 Build 0)  -->
<!DOCTYPE svg PUBLIC "-//W3C//DTD SVG 1.1//EN" "http://www.w3.org/Graphics/SVG/1.1/DTD/svg11.dtd">
<svg version="1.1" id="Layer_1" xmlns="http://www.w3.org/2000/svg" xmlns:xlink="http://www.w3.org/1999/xlink" x="0px" y="0px"
	 viewBox="0 0 400 400" enable-background="new 0 0 400 400" xml:space="preserve">
<g>
	<g>
		<path fill="#FFFEFF" d="M27.2,172.9v59.7h-7.1v-59.7h-19v-6.3h45.3v6.3H27.2z"/>
		<path fill="#FFFEFF" d="M67.9,232.6v-66.1H109v6.3H75v23.3H104v6.3H75v23.8h34v6.3H67.9V232.6z"/>
		<path fill="#FFFEFF" d="M171.4,232.6l-5.3-15h-28.9l-5.3,15h-7.5l24.4-66.1h6l24.2,66.1L171.4,232.6L171.4,232.6z M151.9,176.7
			l-12.4,34.9h24.7L151.9,176.7z"/>
		<path fill="#FFFEFF" d="M246.7,232.6v-50.2l-18.1,39.8h-6.1L204,182.4v50.2h-7.1v-66.1h7.1l21.6,46.9l20.9-46.9h7.1v66.1
			L246.7,232.6L246.7,232.6z"/>
		<path fill="#FFFEFF" d="M303.6,233.2c-13.6,0-24.4-9.1-24.4-23.2v-43.5h12.9v43c0,7.6,4.4,12.2,11.4,12.2s11.5-4.6,11.5-12.2v-43
			H328V210C328,224,317.2,233.2,303.6,233.2z"/>
		<path fill="#FFFEFF" d="M377.2,207.7h-12.7v24.9h-12.9v-66.1h25.6c13.7,0,21.8,9.4,21.8,20.5C399,198.4,390.9,207.7,377.2,207.7z
			 M376.6,178.1h-12.1v18.1h12.1c5.8,0,9.5-3.7,9.5-9C386.2,181.7,382.4,178.1,376.6,178.1z"/>
	</g>
	<path fill="none" stroke="#B3B3B3" stroke-width="10.3655" stroke-linecap="round" stroke-miterlimit="10" d="M61.7,144.6
		c22.6-55.1,76.7-95.8,139.9-95.8c63.9,0,118.6,39.7,140.8,95.8"/>
	<path fill="none" stroke="#B3B3B3" stroke-width="10.3655" stroke-linecap="round" stroke-miterlimit="10" d="M341.2,258.6
		c-22.8,54.4-76.7,92.6-139.4,92.6c-63.2,0-117.3-37.5-139.9-92.6"/>
	<path fill="none" stroke="#B3B3B3" stroke-width="9.3633" stroke-linecap="round" stroke-miterlimit="10" d="M100.7,144.6
		c20.2-35.1,57.8-61.1,101.1-61.1c43.8,0,81.9,25.2,101.9,61.1"/>
	<path fill="none" stroke="#B3B3B3" stroke-width="9.3633" stroke-linecap="round" stroke-miterlimit="10" d="M302.6,258.6
		c-20.2,34.9-57.8,58-101,58c-43.3,0-81.1-22.8-101.1-58"/>
</g>
</svg>
